# xmcd
#
# Track frame offsets:
#	150
#	11951
#	24754
#	37210
#	48515
#	60139
#	75806
#	89591
#	100710
#	113728
#
# Disc length: 1690 seconds
#
# Revision: 2
# Processed by: cddbd v1.5.1PL0 Copyright (c) Steve Scherf et al.
# Submitted via: dBpowerAMP V4.0
#
DISCID=6b06980a
DTITLE=Merle Haggard - A Portrait Of Merle Haggard
DYEAR=1969
DGENRE=country
TTITLE0=Workin' Man Blues
TTITLE1=What's Wrong With Stayin' Home
TTITLE2=Silver Wings
TTITLE3=Who Do I Know In Dallas
TTITLE4=She Thinks I Still Care
TTITLE5=Hungry Eyes
TTITLE6=I Die Ten Thousand Times A Day
TTITLE7=Every Fool Has A Rainbow
TTITLE8=I Came So Close To Living Alone
TTITLE9=Montego Bay
EXTD=+Sound Man+
EXTT0=
EXTT1=
EXTT2=
EXTT3=
EXTT4=
EXTT5=
EXTT6=
EXTT7=
EXTT8=
EXTT9=
PLAYORDER=
